<?xml version="1.0" standalone="no"?>
<!DOCTYPE svg PUBLIC "-//W3C//DTD SVG 20010904//EN"
 "http://www.w3.org/TR/2001/REC-SVG-20010904/DTD/svg10.dtd">
<svg version="1.0" xmlns="http://www.w3.org/2000/svg"
 width="107.000000pt" height="109.000000pt" viewBox="0 0 107.000000 109.000000"
 preserveAspectRatio="xMidYMid meet">

<g transform="translate(0.000000,109.000000) scale(0.100000,-0.100000)"
fill="#000000" stroke="none">
<path d="M758 944 c-3 -3 -61 -6 -129 -6 -105 0 -127 -3 -149 -20 -14 -10 -43
-19 -64 -20 -21 -1 -40 -7 -43 -14 -8 -22 18 -55 59 -74 35 -16 62 -17 231
-13 184 5 193 5 210 -15 10 -11 17 -31 15 -44 -3 -19 -8 -23 -35 -20 -18 2
-33 -1 -33 -6 0 -15 -101 -23 -119 -9 -11 9 -13 9 -8 0 5 -8 -2 -7 -20 2 -31
16 -53 19 -53 7 0 -4 -9 -8 -20 -9 -11 -1 -28 -9 -36 -18 -19 -19 -68 -17
-101 3 -19 12 -23 12 -23 1 0 -11 -2 -11 -10 1 -7 10 -10 11 -10 2 0 -13 -70
-48 -118 -58 -8 -1 -29 -10 -48 -19 -19 -9 -39 -13 -44 -10 -6 3 -10 1 -10 -5
0 -6 -4 -9 -9 -6 -5 3 -14 -1 -21 -9 -14 -17 -50 -21 -50 -6 0 6 5 13 12 17 7
4 8 3 4 -4 -4 -7 -1 -12 8 -12 8 0 18 5 21 10 4 6 3 10 -2 9 -4 -1 -10 0 -13
1 -17 7 -91 6 -96 -2 -3 -5 -11 -4 -19 2 -27 23 -35 -1 -35 -105 l0 -104 42
15 c23 8 55 17 72 20 17 3 65 14 108 25 42 10 81 19 87 19 7 0 11 -21 11 -50
0 -43 3 -50 20 -50 17 0 20 -7 20 -40 0 -33 -3 -40 -20 -40 -13 0 -20 -7 -20
-20 0 -13 -7 -20 -20 -20 -13 0 -20 -7 -20 -20 0 -13 -7 -20 -20 -20 -17 0
-20 -7 -20 -40 0 -33 -3 -40 -20 -40 -16 0 -20 -7 -20 -35 0 -28 -4 -35 -20
-35 -16 0 -20 -7 -20 -30 l0 -30 435 0 435 0 0 30 c0 23 -4 30 -20 30 -18 0
-20 7 -20 75 0 68 2 75 20 75 13 0 20 7 20 19 0 10 9 21 20 24 17 4 20 14 20
61 0 49 -2 56 -20 56 -17 0 -20 7 -20 40 0 33 -3 40 -20 40 -17 0 -20 7 -20
40 l0 40 40 0 c39 0 40 1 40 36 0 27 -5 37 -19 41 -11 3 -21 13 -24 24 -3 10
-12 19 -21 19 -12 0 -16 10 -16 35 0 28 -4 35 -20 35 -11 0 -20 -7 -20 -15 0
-8 -9 -15 -21 -15 -23 0 -17 16 13 38 21 16 22 34 5 85 -15 43 -42 66 -76 67
-14 0 -36 14 -55 35 -31 34 -46 41 -58 29z m-649 -372 c-1 -15 -2 -15 -6 1 -2
9 -9 14 -15 11 -7 -4 -8 -2 -4 5 10 15 26 4 25 -17z m438 -38 c-3 -3 -12 -4
-19 -1 -8 3 -5 6 6 6 11 1 17 -2 13 -5z m123 -69 c0 -52 1 -55 25 -55 24 0 25
3 25 55 l0 55 75 0 75 0 0 -56 c0 -52 1 -55 23 -52 19 3 22 10 25 56 2 37 7
52 18 52 9 0 14 -11 14 -35 0 -28 4 -35 20 -35 17 0 20 -7 20 -40 0 -33 3 -40
20 -40 17 0 20 -7 20 -40 l0 -40 -175 0 c-168 0 -175 1 -175 20 0 15 -7 20
-25 20 -18 0 -25 -5 -25 -20 0 -13 7 -20 20 -20 13 0 20 -7 20 -20 0 -19 7
-20 160 -20 136 0 160 -2 160 -15 0 -11 -11 -15 -40 -15 -33 0 -40 -3 -40 -20
0 -19 -7 -20 -134 -20 -125 0 -134 1 -139 20 -3 12 -14 20 -26 20 -12 0 -21 6
-21 15 0 8 -6 15 -14 15 -14 0 -26 42 -26 91 0 22 5 29 20 29 13 0 20 7 20 20
0 15 7 20 25 20 24 0 25 3 25 55 0 42 3 55 15 55 12 0 15 -13 15 -55z m-234
10 c11 -27 -6 -105 -22 -105 -8 0 -14 9 -14 20 0 13 -7 20 -20 20 -17 0 -20 7
-20 40 0 39 1 40 35 40 23 0 38 -6 41 -15z"/>
<path d="M790 350 c0 -13 7 -20 20 -20 13 0 20 7 20 20 0 13 -7 20 -20 20 -13
0 -20 -7 -20 -20z"/>
<path d="M910 350 c0 -13 7 -20 20 -20 13 0 20 7 20 20 0 13 -7 20 -20 20 -13
0 -20 -7 -20 -20z"/>
</g>
</svg>
