<svg width="185" height="32" viewBox="0 0 185 32" fill="none" xmlns="http://www.w3.org/2000/svg">
<path d="M167.909 21.0054V31.5722H160.401V0.427856H172.829C175.21 0.427856 177.317 0.866359 179.15 1.74336C180.982 2.62037 182.401 3.86814 183.406 5.48668C184.412 7.10522 184.914 8.94123 184.914 10.9947C184.914 14.0321 183.827 16.4599 181.652 18.2781C179.478 20.0963 176.494 21.0054 172.701 21.0054H167.909ZM167.909 15.2086H172.829C174.283 15.2086 175.392 14.845 176.155 14.1177C176.918 13.3904 177.299 12.3637 177.299 11.0375C177.299 9.58294 176.907 8.42073 176.123 7.55085C175.339 6.68098 174.269 6.23891 172.914 6.22465H167.909V15.2086Z" fill="white"/>
<path d="M148.251 25.7541H137.963L136.166 31.5722H128.144L139.567 0.427856H146.626L158.134 31.5722H150.07L148.251 25.7541ZM139.759 19.9573H146.455L143.096 9.15513L139.759 19.9573Z" fill="white"/>
<path d="M117.535 19.9573L121.107 0.427856H128.551L121.941 31.5722H114.155L109.984 13.8182L105.898 31.5722H98.1337L91.5027 0.427857H98.9679L102.54 19.9573L106.818 0.427857H113.193L117.535 19.9573Z" fill="white"/>
<path d="M82.0481 23.2941C82.0481 22.1961 81.6595 21.3405 80.8824 20.7273C80.1052 20.1141 78.7398 19.4795 76.7861 18.8235C74.8324 18.1676 73.2353 17.533 71.9947 16.9198C67.959 14.9376 65.9412 12.2139 65.9412 8.74866C65.9412 7.02317 66.4438 5.50089 67.4492 4.18182C68.4545 2.86274 69.877 1.83601 71.7166 1.1016C73.5562 0.367201 75.6239 0 77.9198 0C80.1586 0 82.1658 0.399287 83.9412 1.19786C85.7166 1.99643 87.0963 3.13369 88.0802 4.60963C89.0642 6.08556 89.5562 7.77184 89.5562 9.66845H82.0695C82.0695 8.39929 81.6809 7.41533 80.9037 6.71658C80.1266 6.01783 79.0749 5.66845 77.7487 5.66845C76.4082 5.66845 75.3494 5.96435 74.5722 6.55615C73.795 7.14795 73.4064 7.90018 73.4064 8.81283C73.4064 9.61141 73.8342 10.3351 74.6898 10.984C75.5455 11.6328 77.0499 12.303 79.2032 12.9947C81.3565 13.6863 83.1248 14.4314 84.508 15.2299C87.8734 17.1693 89.5562 19.8431 89.5562 23.2513C89.5562 25.975 88.5294 28.1141 86.4759 29.6684C84.4225 31.2228 81.6061 32 78.0267 32C75.5027 32 73.2175 31.5472 71.1711 30.6417C69.1248 29.7362 67.5847 28.4955 66.5508 26.9198C65.5169 25.344 65 23.5294 65 21.4759H72.5294C72.5294 23.1444 72.9608 24.3743 73.8235 25.1658C74.6863 25.9572 76.0873 26.3529 78.0267 26.3529C79.2674 26.3529 80.2478 26.0856 80.9679 25.5508C81.6881 25.016 82.0481 24.2638 82.0481 23.2941Z" fill="white"/>
<path d="M54.8201 19.7429H52.4422V0H54.8201V19.7429Z" fill="white"/>
<path d="M36.5938 12.6606C36.5938 11.2982 36.8616 10.0728 37.3972 8.98454C37.9327 7.89628 38.6782 7.05652 39.6337 6.46526C40.5891 5.874 41.6795 5.57837 42.9049 5.57837C44.7986 5.57837 46.3303 6.2339 47.5 7.54495C48.6697 8.856 49.2545 10.5998 49.2545 12.7763V12.9434C49.2545 14.2973 48.9953 15.512 48.4769 16.5874C47.9584 17.6628 47.2172 18.5004 46.2532 19.1002C45.2892 19.7 44.1817 20 42.9306 20C41.0454 20 39.518 19.3444 38.3483 18.0334C37.1787 16.7223 36.5938 14.9871 36.5938 12.8277V12.6606ZM38.9846 12.9434C38.9846 14.4858 39.3423 15.724 40.0578 16.6581C40.7733 17.5921 41.7309 18.0591 42.9306 18.0591C44.1388 18.0591 45.0985 17.5857 45.8098 16.6388C46.521 15.6919 46.8766 14.3659 46.8766 12.6606C46.8766 11.1354 46.5146 9.89928 45.7905 8.9524C45.0664 8.00553 44.1045 7.5321 42.9049 7.5321C41.7309 7.5321 40.7841 7.99911 40.0643 8.93312C39.3445 9.86714 38.9846 11.2039 38.9846 12.9434Z" fill="white"/>
<path d="M16.3882 5.83544L16.4524 7.37785C17.4721 6.1782 18.8475 5.57837 20.5784 5.57837C22.5236 5.57837 23.8475 6.32387 24.5501 7.81487C25.0129 7.14649 25.6148 6.60665 26.356 6.19534C27.0973 5.78402 27.9734 5.57837 28.9846 5.57837C32.0351 5.57837 33.5861 7.19362 33.6375 10.4241V19.7429H31.2596V10.5655C31.2596 9.57151 31.0326 8.82815 30.5784 8.33544C30.1242 7.84272 29.3616 7.59636 28.2905 7.59636C27.4079 7.59636 26.6752 7.85986 26.0925 8.38685C25.5099 8.91384 25.1714 9.62293 25.0771 10.5141V19.7429H22.6864V10.6298C22.6864 8.6075 21.6967 7.59636 19.7172 7.59636C18.1577 7.59636 17.0908 8.26046 16.5167 9.58865V19.7429H14.1388V5.83544H16.3882Z" fill="white"/>
<path d="M8.67609 16.0539C8.67609 15.4113 8.43402 14.9121 7.94987 14.5565C7.46572 14.2009 6.62168 13.8946 5.41774 13.6375C4.2138 13.3804 3.25835 13.0719 2.55141 12.712C1.84447 12.3521 1.32177 11.9237 0.98329 11.4267C0.644816 10.9297 0.475578 10.3384 0.475578 9.65292C0.475578 8.51324 0.957583 7.54923 1.92159 6.76089C2.8856 5.97254 4.11739 5.57837 5.61697 5.57837C7.19366 5.57837 8.47258 5.9854 9.45373 6.79945C10.4349 7.6135 10.9255 8.65463 10.9255 9.92284H8.5347C8.5347 9.2716 8.25836 8.71033 7.70566 8.23904C7.15296 7.76774 6.45673 7.5321 5.61697 7.5321C4.7515 7.5321 4.07455 7.72061 3.58612 8.09765C3.09769 8.47468 2.85347 8.9674 2.85347 9.5758C2.85347 10.1499 3.08055 10.5827 3.5347 10.874C3.98886 11.1653 4.80934 11.4438 5.99614 11.7095C7.18295 11.9751 8.14482 12.2922 8.88175 12.6606C9.61868 13.0291 10.165 13.4725 10.5206 13.991C10.8762 14.5094 11.054 15.1414 11.054 15.8869C11.054 17.1294 10.557 18.1255 9.56298 18.8753C8.56898 19.6251 7.27935 20 5.69409 20C4.58012 20 3.59469 19.8029 2.73779 19.4087C1.88089 19.0145 1.21037 18.464 0.726221 17.757C0.242074 17.0501 0 16.2853 0 15.4627H2.37789C2.42074 16.2596 2.73993 16.8916 3.33548 17.3586C3.93102 17.8256 4.71722 18.0591 5.69409 18.0591C6.59383 18.0591 7.31577 17.877 7.8599 17.5128C8.40403 17.1486 8.67609 16.6623 8.67609 16.0539Z" fill="white"/>
</svg>
