<svg width="48" height="35" viewBox="0 0 48 35" fill="none" xmlns="http://www.w3.org/2000/svg">
<path fill-rule="evenodd" clip-rule="evenodd" d="M44.8922 5.69556C45.0444 5.03594 44.5877 4.49049 44.2199 4.3129C43.5349 3.9704 43.0529 4.32558 42.6089 4.60465C40.1099 6.21564 37.167 7.80127 34.6681 9.42495L24.1395 15.7928C23.7082 15.8943 19.5222 13.1797 18.8626 12.7738L8.34672 6.38055C7.45877 5.87315 6.53277 5.30233 5.67019 4.76956C5.25159 4.50317 4.79493 4.10994 4.13531 4.19873C3.56448 4.27484 3.09514 4.79493 3.10782 5.44186C3.13319 6.43129 4.5666 6.97674 5.30233 7.44609C8.47357 9.48837 12.5201 11.8097 15.8309 13.8266C16.7696 14.3975 17.5814 14.9302 18.482 15.463C25.7252 19.649 22.4271 19.4588 29.3023 15.5772C30.203 15.0698 30.9894 14.537 31.9027 14.0042L42.4947 7.57294C43.2051 7.16702 44.7273 6.4186 44.8922 5.69556ZM48 4.84567V29.8351C48 32.3975 45.6279 34.7315 43.0782 34.7315H4.9852C3.28541 34.7315 2.15645 33.8943 1.25581 32.9556C0.15222 31.8013 0 30.6216 0 28.7315V6.06342C0 3.50106 0.697674 1.48414 2.9556 0.48203C3.76744 0.12685 4.40169 0 5.35307 0H42.7104C45.4503 0 48 2.10571 48 4.84567Z" fill="black" fill-opacity="0.54"/>
</svg>
